<svg width="35" height="35" viewBox="0 0 35 35" fill="none" xmlns="http://www.w3.org/2000/svg">
<path fill-rule="evenodd" clip-rule="evenodd" d="M16.7707 12.3959C16.7707 13.7025 16.2792 14.8955 15.4713 15.7982C16.6053 16.6048 17.4535 17.7509 17.8935 19.0712C18.3334 20.3914 18.3423 21.8173 17.9188 23.1429C17.4954 24.4685 16.6615 25.6251 15.5376 26.4458C14.4137 27.2665 13.0581 27.7086 11.6665 27.7084H5.104C4.52384 27.7084 3.96744 27.4779 3.55721 27.0677C3.14697 26.6574 2.9165 26.101 2.9165 25.5209V8.02087C2.9165 7.44071 3.14697 6.88431 3.55721 6.47408C3.96744 6.06384 4.52384 5.83337 5.104 5.83337H10.9373C12.4844 5.83337 13.9682 6.44796 15.0621 7.54192C16.1561 8.63588 16.7707 10.1196 16.7707 11.6667V12.3959ZM5.83317 14.5834V8.75004H10.9373C11.7109 8.75004 12.4528 9.05733 12.9997 9.60431C13.5467 10.1513 13.854 10.8932 13.854 11.6667V12.3959C13.854 12.976 13.6235 13.5324 13.2133 13.9427C12.8031 14.3529 12.2467 14.5834 11.6665 14.5834H5.83317ZM5.83317 17.5H11.6665C12.6334 17.5 13.5608 17.8842 14.2445 18.5679C14.9282 19.2516 15.3123 20.1789 15.3123 21.1459C15.3123 22.1128 14.9282 23.0401 14.2445 23.7239C13.5608 24.4076 12.6334 24.7917 11.6665 24.7917H5.83317V17.5Z" fill="black"/>
<path d="M21.875 8.74996C21.875 8.36319 22.0286 7.99225 22.3021 7.71876C22.5756 7.44527 22.9466 7.29163 23.3333 7.29163H28.4375C28.8243 7.29163 29.1952 7.44527 29.4687 7.71876C29.7422 7.99225 29.8958 8.36319 29.8958 8.74996C29.8958 9.13673 29.7422 9.50767 29.4687 9.78116C29.1952 10.0546 28.8243 10.2083 28.4375 10.2083H23.3333C22.9466 10.2083 22.5756 10.0546 22.3021 9.78116C22.0286 9.50767 21.875 9.13673 21.875 8.74996Z" fill="black"/>
<path fill-rule="evenodd" clip-rule="evenodd" d="M25.8853 11.6666C21.7421 11.6666 18.229 14.8487 18.229 18.9583V20.4166C18.229 24.5262 21.7421 27.7083 25.8853 27.7083C28.0946 27.7083 29.6944 27.0725 30.7663 26.3812C31.4109 25.967 31.9169 25.4625 32.404 24.882C32.6159 24.5638 32.6944 24.175 32.6224 23.7994C32.5505 23.4238 32.3339 23.0916 32.0193 22.8742C31.7048 22.6567 31.3174 22.5716 30.9406 22.637C30.5639 22.7024 30.2279 22.9132 30.005 23.2239C29.7736 23.5026 29.4977 23.7411 29.1884 23.9298C28.5598 24.3337 27.5025 24.7916 25.8853 24.7916C23.183 24.7916 21.1457 22.75 21.1457 20.4166H32.0832C32.4699 20.4166 32.8409 20.263 33.1144 19.9895C33.3879 19.716 33.5415 19.3451 33.5415 18.9583C33.5415 14.8487 30.0284 11.6666 25.8853 11.6666ZM30.3521 17.5C29.7105 15.836 28.0013 14.5833 25.8853 14.5833C23.7692 14.5833 22.06 15.836 21.4184 17.5H30.3521Z" fill="black"/>
</svg>
