<svg width="35" height="35" viewBox="0 0 35 35" fill="none" xmlns="http://www.w3.org/2000/svg">
<path fill-rule="evenodd" clip-rule="evenodd" d="M2.9165 8.74996C2.9165 7.20286 3.53109 5.71913 4.62505 4.62517C5.71901 3.53121 7.20274 2.91663 8.74984 2.91663H26.2498C27.7969 2.91663 29.2807 3.53121 30.3746 4.62517C31.4686 5.71913 32.0832 7.20286 32.0832 8.74996V26.25C32.0832 27.7971 31.4686 29.2808 30.3746 30.3747C29.2807 31.4687 27.7969 32.0833 26.2498 32.0833H8.74984C7.20274 32.0833 5.71901 31.4687 4.62505 30.3747C3.53109 29.2808 2.9165 27.7971 2.9165 26.25V8.74996ZM8.74984 5.83329C7.97629 5.83329 7.23442 6.14058 6.68744 6.68756C6.14046 7.23454 5.83317 7.97641 5.83317 8.74996V26.25C5.83317 27.0235 6.14046 27.7654 6.68744 28.3123C7.23442 28.8593 7.97629 29.1666 8.74984 29.1666H26.2498C27.0234 29.1666 27.7652 28.8593 28.3122 28.3123C28.8592 27.7654 29.1665 27.0235 29.1665 26.25V8.74996C29.1665 7.97641 28.8592 7.23454 28.3122 6.68756C27.7652 6.14058 27.0234 5.83329 26.2498 5.83329H8.74984ZM17.4998 13.125C16.3395 13.125 15.2267 13.5859 14.4062 14.4064C13.5858 15.2268 13.1248 16.3396 13.1248 17.5C13.1248 18.6603 13.5858 19.7731 14.4062 20.5935C15.2267 21.414 16.3395 21.875 17.4998 21.875C18.6602 21.875 19.773 21.414 20.5934 20.5935C21.4139 19.7731 21.8748 18.6603 21.8748 17.5C21.8748 16.3396 21.4139 15.2268 20.5934 14.4064C19.773 13.5859 18.6602 13.125 17.4998 13.125ZM10.2082 17.5C10.2082 15.5661 10.9764 13.7114 12.3438 12.344C13.7113 10.9765 15.566 10.2083 17.4998 10.2083C19.4337 10.2083 21.2884 10.9765 22.6558 12.344C24.0233 13.7114 24.7915 15.5661 24.7915 17.5C24.7915 19.4338 24.0233 21.2885 22.6558 22.6559C21.2884 24.0234 19.4337 24.7916 17.4998 24.7916C15.566 24.7916 13.7113 24.0234 12.3438 22.6559C10.9764 21.2885 10.2082 19.4338 10.2082 17.5ZM25.5207 11.6666C26.1008 11.6666 26.6572 11.4362 27.0675 11.0259C27.4777 10.6157 27.7082 10.0593 27.7082 9.47912C27.7082 8.89896 27.4777 8.34256 27.0675 7.93233C26.6572 7.52209 26.1008 7.29163 25.5207 7.29163C24.9405 7.29163 24.3841 7.52209 23.9739 7.93233C23.5636 8.34256 23.3332 8.89896 23.3332 9.47912C23.3332 10.0593 23.5636 10.6157 23.9739 11.0259C24.3841 11.4362 24.9405 11.6666 25.5207 11.6666Z" fill="black"/>
</svg>
